<?xml version="1.0" standalone="no"?>
<svg viewBox="0 0 200 200" xmlns="http://www.w3.org/2000/svg">
  <path fill="#BAE6FF" d="M33.1,-49.4C40,-47.1,40.5,-32.9,45.8,-21C51,-9.1,60.9,0.5,55.4,4.8C49.8,9.1,28.9,8,19.1,13C9.2,18,10.5,29,7.7,32.9C4.9,36.8,-2,33.6,-7.8,30.2C-13.5,26.8,-18.2,23.3,-26.8,19.7C-35.4,16.1,-48.1,12.4,-54.6,4.4C-61.2,-3.6,-61.6,-16,-59,-29.2C-56.4,-42.3,-50.8,-56.3,-40.4,-56.9C-30.1,-57.5,-15,-44.8,-1,-43.3C13.1,-41.8,26.3,-51.6,33.1,-49.4Z" transform="translate(100 100)" />
</svg>
